<?xml version="1.0" encoding="utf-8"?>
<!-- Generator: Adobe Illustrator 23.0.6, SVG Export Plug-In . SVG Version: 6.00 Build 0)  -->
<svg version="1.1" id="Layer_1" xmlns="http://www.w3.org/2000/svg" xmlns:xlink="http://www.w3.org/1999/xlink" x="0px" y="0px"
	 viewBox="0 0 213.3 213.5" style="enable-background:new 0 0 213.3 213.5;" xml:space="preserve">
<style type="text/css">
	.st0{fill:none;stroke:#0066CC;stroke-width:13.3446;stroke-linecap:round;stroke-linejoin:round;}
</style>
<g>
	<path class="st0" d="M113.4,87.2c0-29.5-23.9-53.4-53.4-53.4S6.7,57.8,6.7,87.3c0,24.3,16.5,45.6,40,51.7v54.6
		c0,7.4,6,13.3,13.3,13.3c7.4,0,13.3-6,13.3-13.3v-54.6C97,132.9,113.4,111.6,113.4,87.2z"/>
	<path class="st0" d="M120.7,140.1c7-1,13.7-3.3,19.7-6.9l43.7,43.6c5.3,5.1,13.7,5,18.9-0.3c5-5.2,5-13.4,0-18.5l-43.7-43.6
		c15-25.4,6.6-58.1-18.8-73.1c-16.6-9.8-37.1-9.9-53.8-0.3"/>
	<circle class="st0" cx="60.1" cy="80.6" r="13.3"/>
	<path class="st0" d="M60.1,67.2V26.7c0-11.1,9-20,20-20s20,9,20,20v8.8"/>
</g>
</svg>
