<?xml version="1.0" encoding="utf-8"?>
<!-- Generator: Adobe Illustrator 23.0.6, SVG Export Plug-In . SVG Version: 6.00 Build 0)  -->
<svg version="1.1" id="Layer_1" xmlns="http://www.w3.org/2000/svg" xmlns:xlink="http://www.w3.org/1999/xlink" x="0px" y="0px"
	 viewBox="0 0 213.4 213.3" style="enable-background:new 0 0 213.4 213.3;" xml:space="preserve">
<style type="text/css">
	.st0{fill:none;stroke:#0066CC;stroke-width:13.3343;stroke-linecap:round;stroke-linejoin:round;}
</style>
<path class="st0" d="M83.6,148.8l65.3-65.3c20.2,9.6,44.3,1.1,53.9-19.1c5.3-11,5.3-23.8,0-34.8l-12.7,12.7
	c-5.3,5.3-13.8,5.3-19.1,0c-5.3-5.3-5.3-13.8,0-19.1l12.7-12.7c-20.2-9.6-44.3-1-53.9,19.2c-5.2,11-5.2,23.8,0,34.8l-65.3,65.2
	c-20.2-9.6-44.3-1.1-53.9,19.1c-5.3,11-5.3,23.8,0,34.8L23.3,171c5.3-5.3,13.8-5.3,19.1,0c5.3,5.3,5.3,13.8,0,19.1l-12.7,12.6
	c20.2,9.6,44.3,1,53.9-19.2C88.8,172.6,88.8,159.8,83.6,148.8z"/>
</svg>
