<?xml version="1.0" encoding="utf-8"?>
<!-- Generator: Adobe Illustrator 23.0.6, SVG Export Plug-In . SVG Version: 6.00 Build 0)  -->
<svg version="1.1" id="Layer_1" xmlns="http://www.w3.org/2000/svg" xmlns:xlink="http://www.w3.org/1999/xlink" x="0px" y="0px"
	 viewBox="0 0 336.8 221.1" style="enable-background:new 0 0 336.8 221.1;" xml:space="preserve">
<style type="text/css">
	.st0{fill:none;stroke:#0066CC;stroke-width:21.0526;stroke-linecap:round;stroke-linejoin:round;}
</style>
<path class="st0" d="M210.5,126.3V73.7c0-11.6-9.4-21.1-21.1-21.1h-42.1c-11.6,0-21.1,9.4-21.1,21.1v52.6H73.7
	c-11.6,0-21.1,9.4-21.1,21.1l0,0v42.1c0,11.6,9.4,21.1,21.1,21.1h189.5c11.6,0,21.1-9.4,21.1-21.1v-42.1c0-11.6-9.4-21.1-21.1-21.1
	l0,0H210.5z"/>
<line class="st0" x1="284.2" y1="168.4" x2="326.3" y2="168.4"/>
<line class="st0" x1="10.5" y1="168.4" x2="52.6" y2="168.4"/>
<line class="st0" x1="168.4" y1="10.5" x2="168.4" y2="52.6"/>
</svg>
