<?xml version="1.0" encoding="utf-8"?>
<!-- Generator: Adobe Illustrator 23.0.6, SVG Export Plug-In . SVG Version: 6.00 Build 0)  -->
<svg version="1.1" id="Layer_1" xmlns="http://www.w3.org/2000/svg" xmlns:xlink="http://www.w3.org/1999/xlink" x="0px" y="0px"
	 viewBox="0 0 160 213.3" style="enable-background:new 0 0 160 213.3;" xml:space="preserve">
<style type="text/css">
	.st0{fill:none;stroke:#0066CC;stroke-width:13.3333;stroke-linecap:round;stroke-linejoin:round;}
</style>
<g>
	<path class="st0" d="M20,86.7h120c7.4,0,13.3,6,13.3,13.3v93.3c0,7.4-6,13.3-13.3,13.3H20c-7.4,0-13.3-6-13.3-13.3V100
		C6.7,92.6,12.6,86.7,20,86.7z"/>
	<path class="st0" d="M33.3,86.7V53.3C33.3,27.6,54.2,6.7,80,6.7s46.7,20.9,46.7,46.7v33.3"/>
	<path class="st0" d="M78.7,173.3c1.8,0,3.3,1.5,3.3,3.3s-1.5,3.3-3.3,3.3c-1.8,0-3.3-1.5-3.3-3.3S76.9,173.3,78.7,173.3"/>
	<path class="st0" d="M49.5,148.7c17.7-11.6,40.7-11.6,58.4,0"/>
	<path class="st0" d="M124.1,127.6c-27.3-18.9-63.5-18.9-90.8,0"/>
</g>
</svg>
