<?xml version="1.0" encoding="utf-8"?>
<!-- Generator: Adobe Illustrator 23.0.6, SVG Export Plug-In . SVG Version: 6.00 Build 0)  -->
<svg version="1.1" id="Layer_1" xmlns="http://www.w3.org/2000/svg" xmlns:xlink="http://www.w3.org/1999/xlink" x="0px" y="0px"
	 viewBox="0 0 213.3 213.3" style="enable-background:new 0 0 213.3 213.3;" xml:space="preserve">
<style type="text/css">
	.st0{fill:none;stroke:#0066CC;stroke-width:13.3333;stroke-linecap:round;stroke-linejoin:round;}
</style>
<g>
	<path class="st0" d="M20,120h60c7.4,0,13.3,6,13.3,13.3v33.3c0,7.4-6,13.3-13.3,13.3H20c-7.4,0-13.3-6-13.3-13.3v-33.3
		C6.7,126,12.6,120,20,120z"/>
	<line class="st0" x1="26.7" y1="206.7" x2="73.3" y2="206.7"/>
	<line class="st0" x1="50" y1="180" x2="50" y2="206.7"/>
	<path class="st0" d="M133.3,120h60c7.4,0,13.3,6,13.3,13.3v33.3c0,7.4-6,13.3-13.3,13.3h-60c-7.4,0-13.3-6-13.3-13.3v-33.3
		C120,126,126,120,133.3,120z"/>
	<line class="st0" x1="140" y1="206.7" x2="186.7" y2="206.7"/>
	<line class="st0" x1="163.3" y1="180" x2="163.3" y2="206.7"/>
	<path class="st0" d="M76.7,6.7h60c7.4,0,13.3,6,13.3,13.3v33.3c0,7.4-6,13.3-13.3,13.3h-60c-7.4,0-13.3-6-13.3-13.3V20
		C63.3,12.6,69.3,6.7,76.7,6.7z"/>
	<line class="st0" x1="83.3" y1="93.3" x2="130" y2="93.3"/>
	<line class="st0" x1="106.7" y1="66.7" x2="106.7" y2="93.3"/>
</g>
</svg>
