<?xml version="1.0" encoding="utf-8"?>
<!-- Generator: Adobe Illustrator 23.0.6, SVG Export Plug-In . SVG Version: 6.00 Build 0)  -->
<svg version="1.1" id="Layer_1" xmlns="http://www.w3.org/2000/svg" xmlns:xlink="http://www.w3.org/1999/xlink" x="0px" y="0px"
	 viewBox="0 0 213.3 213.1" style="enable-background:new 0 0 213.3 213.1;" xml:space="preserve">
<style type="text/css">
	.st0{fill:none;stroke:#0066CC;stroke-width:13.3333;stroke-linecap:round;stroke-linejoin:round;}
</style>
<path class="st0" d="M173.3,176.5c-1.8,0-3.3,1.5-3.3,3.3c0,1.8,1.5,3.3,3.3,3.3c1.8,0,3.3-1.5,3.3-3.3
	C176.7,178,175.2,176.5,173.3,176.5L173.3,176.5"/>
<path class="st0" d="M153.3,99.8h40c7.4,0,13.3,6,13.3,13.3v80c0,7.4-6,13.3-13.3,13.3h-40c-7.4,0-13.3-6-13.3-13.3v-80
	C140,105.8,146,99.8,153.3,99.8z"/>
<polyline class="st0" points="26.7,133.1 46.7,113.1 66.7,133.1 "/>
<polyline class="st0" points="80,159.8 100,179.8 80,199.8 "/>
<path class="st0" d="M106.7,33.1c-7.9,0-15.4,3.6-20.4,9.6c-2.1-21.9-21.6-38-43.5-35.9S4.8,28.4,6.8,50.4
	c2,20.5,19.2,36.2,39.8,36.1h60c14.7,0,26.7-11.9,26.7-26.7S121.4,33.1,106.7,33.1z"/>
<path class="st0" d="M46.7,113.1v40c0,14.7,11.9,26.7,26.7,26.7H100"/>
</svg>
