<?xml version="1.0" encoding="utf-8"?>
<!-- Generator: Adobe Illustrator 23.0.6, SVG Export Plug-In . SVG Version: 6.00 Build 0)  -->
<svg version="1.1" id="Layer_1" xmlns="http://www.w3.org/2000/svg" xmlns:xlink="http://www.w3.org/1999/xlink" x="0px" y="0px"
	 viewBox="0 0 213.3 213.3" style="enable-background:new 0 0 213.3 213.3;" xml:space="preserve">
<style type="text/css">
	.st0{fill:none;stroke:#0066CC;stroke-width:13.3333;stroke-linecap:round;stroke-linejoin:round;}
</style>
<polygon class="st0" points="86.7,133.3 86.7,180 126.7,180 126.7,133.3 153.3,133.3 106.7,86.7 60,133.3 "/>
<path class="st0" d="M20,60h173.3c7.4,0,13.3,6,13.3,13.3v120c0,7.4-6,13.3-13.3,13.3H20c-7.4,0-13.3-6-13.3-13.3v-120
	C6.7,66,12.6,60,20,60z"/>
<path class="st0" d="M8.5,66.7l21.3-52.1c2.1-4.8,6.9-7.9,12.2-7.9h129.3c5.3,0,10,3.1,12.2,7.9l20.8,51.2"/>
<line class="st0" x1="106.7" y1="60" x2="106.7" y2="6.7"/>
</svg>
