<?xml version="1.0" encoding="utf-8"?>
<!-- Generator: Adobe Illustrator 23.0.6, SVG Export Plug-In . SVG Version: 6.00 Build 0)  -->
<svg version="1.1" id="Layer_1" xmlns="http://www.w3.org/2000/svg" xmlns:xlink="http://www.w3.org/1999/xlink" x="0px" y="0px"
	 viewBox="0 0 213.3 213.3" style="enable-background:new 0 0 213.3 213.3;" xml:space="preserve">
<style type="text/css">
	.st0{fill:none;stroke:#0066CC;stroke-width:13.3333;stroke-linecap:round;stroke-linejoin:round;}
</style>
<g>
	<line class="st0" x1="106.7" y1="166.7" x2="120" y2="166.7"/>
	<line class="st0" x1="146.7" y1="166.7" x2="173.3" y2="166.7"/>
	<path class="st0" d="M50,163.3c-1.8,0-3.3,1.5-3.3,3.3c0,1.8,1.5,3.3,3.3,3.3c1.8,0,3.3-1.5,3.3-3.3c0,0,0,0,0,0
		C53.3,164.8,51.8,163.3,50,163.3L50,163.3"/>
	<g>
		<line class="st0" x1="106.7" y1="86.7" x2="120" y2="86.7"/>
		<line class="st0" x1="146.7" y1="86.7" x2="173.3" y2="86.7"/>
		<path class="st0" d="M206.7,86.7c0,22.1-17.9,40-40,40h-120c-22.1,0-40-17.9-40-40s17.9-40,40-40h120
			C188.8,46.7,206.7,64.6,206.7,86.7z"/>
		<path class="st0" d="M50,83.3c-1.8,0-3.3,1.5-3.3,3.3c0,1.8,1.5,3.3,3.3,3.3s3.3-1.5,3.3-3.3c0,0,0,0,0,0
			C53.3,84.8,51.8,83.3,50,83.3L50,83.3"/>
		<path class="st0" d="M206.7,166.7c0,22.1-17.9,40-40,40h-120c-22.1,0-40-17.9-40-40s17.9-40,40-40h120
			C188.8,126.7,206.7,144.6,206.7,166.7z"/>
		<path class="st0" d="M202.9,69.7L180.5,22c-4.4-9.4-13.8-15.3-24.1-15.3H57c-10.3,0-19.8,6-24.2,15.3L10.4,69.7"/>
	</g>
</g>
</svg>
