<?xml version="1.0" encoding="utf-8"?>
<!-- Generator: Adobe Illustrator 23.0.6, SVG Export Plug-In . SVG Version: 6.00 Build 0)  -->
<svg version="1.1" id="Layer_1" xmlns="http://www.w3.org/2000/svg" xmlns:xlink="http://www.w3.org/1999/xlink" x="0px" y="0px"
	 viewBox="0 0 213.3 186.7" style="enable-background:new 0 0 213.3 186.7;" xml:space="preserve">
<style type="text/css">
	.st0{fill:none;stroke:#0066CC;stroke-width:13.3333;stroke-linecap:round;stroke-linejoin:round;}
</style>
<path class="st0" d="M193.3,73.3v80c0,14.7-11.9,26.7-26.7,26.7h-120C31.9,180,20,168.1,20,153.3v-80"/>
<path class="st0" d="M193.3,6.7H20c-7.4,0-13.3,6-13.3,13.3v26.7h200V20C206.7,12.6,200.7,6.7,193.3,6.7z"/>
<path class="st0" d="M133.3,86.7c0,7.4-6,13.3-13.3,13.3H93.3C86,100,80,94,80,86.7c0-7.4,6-13.3,13.3-13.3H120
	C127.4,73.3,133.3,79.3,133.3,86.7z"/>
</svg>
