<?xml version="1.0" encoding="UTF-8" standalone="no"?>
<!DOCTYPE svg PUBLIC "-//W3C//DTD SVG 20010904//EN"
              "http://www.w3.org/TR/2001/REC-SVG-20010904/DTD/svg10.dtd">

<svg xmlns="http://www.w3.org/2000/svg"
			 width="100%" height="100%" preserveAspectRatio="xMidYMid meet"
			 viewBox="0 0 3635 378">
	<path fill="#ffeb7f" d="M 0.00,0.00
           C 0.00,0.00 0.00,378.00 0.00,378.00
             0.00,378.00 28.00,375.17 28.00,375.17
             28.00,375.17 76.00,370.17 76.00,370.17
             76.00,370.17 240.00,353.17 240.00,353.17
             240.00,353.17 621.00,313.83 621.00,313.83
             621.00,313.83 760.00,299.17 760.00,299.17
             760.00,299.17 1049.00,269.17 1049.00,269.17
             1049.00,269.17 1883.00,182.83 1883.00,182.83
             1883.00,182.83 2249.00,144.83 2249.00,144.83
             2249.00,144.83 2721.00,95.83 2721.00,95.83
             2721.00,95.83 2860.00,81.17 2860.00,81.17
             2860.00,81.17 3328.00,32.83 3328.00,32.83
             3328.00,32.83 3530.00,11.83 3530.00,11.83
             3530.00,11.83 3607.00,3.83 3607.00,3.83
             3607.00,3.83 3635.00,1.00 3635.00,1.00
             3630.17,-0.91 3612.26,0.00 3606.00,0.00
             3606.00,0.00 3543.00,0.00 3543.00,0.00
             3543.00,0.00 3324.00,0.00 3324.00,0.00
             3324.00,0.00 2574.00,0.00 2574.00,0.00
             2574.00,0.00 0.00,0.00 0.00,0.00 Z" />
</svg>

