<?xml version="1.0" encoding="UTF-8" standalone="no"?>
<!DOCTYPE svg PUBLIC "-//W3C//DTD SVG 20010904//EN"
              "http://www.w3.org/TR/2001/REC-SVG-20010904/DTD/svg10.dtd">

<svg xmlns="http://www.w3.org/2000/svg"
     width="100%" height="100%" preserveAspectRatio="xMidYMid meet"
     viewBox="0 0 7106 643">
  <path id="Selection"
        fill="#00376e" 
        d="M 1.00,0.00
           C 5.63,2.36 17.34,2.67 23.00,3.09
             23.00,3.09 57.00,6.17 57.00,6.17
             57.00,6.17 179.00,17.17 179.00,17.17
             179.00,17.17 483.00,44.83 483.00,44.83
             483.00,44.83 600.00,55.17 600.00,55.17
             600.00,55.17 860.00,78.83 860.00,78.83
             860.00,78.83 911.00,83.17 911.00,83.17
             911.00,83.17 1314.00,119.83 1314.00,119.83
             1314.00,119.83 1436.00,130.83 1436.00,130.83
             1436.00,130.83 1580.00,143.83 1580.00,143.83
             1580.00,143.83 1735.00,157.83 1735.00,157.83
             1735.00,157.83 1786.00,162.17 1786.00,162.17
             1786.00,162.17 2012.00,182.83 2012.00,182.83
             2012.00,182.83 2074.00,188.17 2074.00,188.17
             2074.00,188.17 2566.00,232.83 2566.00,232.83
             2566.00,232.83 2717.00,246.17 2717.00,246.17
             2717.00,246.17 3054.00,276.83 3054.00,276.83
             3054.00,276.83 3127.00,283.17 3127.00,283.17
             3127.00,283.17 3353.00,303.83 3353.00,303.83
             3353.00,303.83 3415.00,309.17 3415.00,309.17
             3415.00,309.17 3692.00,334.17 3692.00,334.17
             3692.00,334.17 4372.00,395.83 4372.00,395.83
             4372.00,395.83 4423.00,400.17 4423.00,400.17
             4423.00,400.17 4649.00,420.83 4649.00,420.83
             4649.00,420.83 4800.00,434.17 4800.00,434.17
             4800.00,434.17 5203.00,470.83 5203.00,470.83
             5203.00,470.83 5365.00,485.17 5365.00,485.17
             5365.00,485.17 5509.00,498.17 5509.00,498.17
             5509.00,498.17 5631.00,509.17 5631.00,509.17
             5631.00,509.17 6045.00,546.83 6045.00,546.83
             6045.00,546.83 6300.00,569.83 6300.00,569.83
             6300.00,569.83 6506.00,588.17 6506.00,588.17
             6506.00,588.17 6821.00,616.83 6821.00,616.83
             6821.00,616.83 6894.00,623.17 6894.00,623.17
             6894.00,623.17 7027.00,635.17 7027.00,635.17
             7027.00,635.17 7106.00,642.00 7106.00,642.00
             7106.00,642.00 7106.00,0.00 7106.00,0.00
             7106.00,0.00 1.00,0.00 1.00,0.00 Z" />
</svg>
