<?xml version="1.0" encoding="utf-8"?>
<!-- Generator: Adobe Illustrator 23.0.6, SVG Export Plug-In . SVG Version: 6.00 Build 0)  -->
<svg version="1.1" id="Layer_1" xmlns="http://www.w3.org/2000/svg" xmlns:xlink="http://www.w3.org/1999/xlink" x="0px" y="0px"
	 viewBox="0 0 213.3 160" style="enable-background:new 0 0 213.3 160;" xml:space="preserve">
<style type="text/css">
	.st0{fill:none;stroke:#0066CC;stroke-width:13.3333;stroke-linecap:round;stroke-linejoin:round;}
</style>
<path class="st0" d="M86.7,100v33.3c0,11-9,20-20,20h-40c-11,0-20-9-20-20V26.7c0-11,9-20,20-20h40c11,0,20,9,20,20v20"/>
<line class="st0" x1="6.7" y1="126.7" x2="86.7" y2="126.7"/>
<path class="st0" d="M126.7,46.7v-20c0-11,9-20,20-20h40c11,0,20,9,20,20v106.7c0,11-9,20-20,20h-40c-11,0-20-9-20-20V100"/>
<line class="st0" x1="126.7" y1="33.3" x2="206.7" y2="33.3"/>
<line class="st0" x1="126.7" y1="126.7" x2="206.7" y2="126.7"/>
<polyline class="st0" points="60,53.3 40,73.3 60,93.3 "/>
<polyline class="st0" points="153.3,53.3 173.3,73.3 153.3,93.3 "/>
<line class="st0" x1="40" y1="73.3" x2="173.3" y2="73.3"/>
</svg>
